<svg width="227" height="169" viewBox="0 0 227 169" fill="none" xmlns="http://www.w3.org/2000/svg">
<g clip-path="url(#clip0)">
<path d="M158.255 58.336L131.584 73.7838L120.476 67.3354V36.3689L158.255 58.336Z" fill="#BCE5FB"/>
<path d="M158.255 58.336V89.2316L141.417 99.0105L114.816 114.458L93.8044 102.412V95.8217L114.816 83.5627L158.255 58.336Z" fill="#01A1B9"/>
<path d="M141.418 99.0104L114.816 114.458L67.062 87.0349V55.8558L141.418 99.0104Z" fill="#0A7ACA"/>
<path d="M93.8044 0.229523V102.412L67.0619 87.0349V15.7482L93.8044 0.229523Z" fill="#004D8B"/>
<path d="M8.97775 168.384C8.34102 168.384 7.63355 168.384 6.85533 168.313C6.07711 168.313 5.36963 168.242 4.59141 168.171C3.81319 168.1 3.10571 168.03 2.32749 167.959C1.62002 167.888 0.912545 167.746 0.275818 167.604V136.567C0.912545 136.425 1.54927 136.284 2.32749 136.213C3.03497 136.142 3.81319 136.071 4.59141 136C5.36963 135.929 6.07711 135.858 6.85533 135.858C7.5628 135.858 8.27028 135.788 8.907 135.788C10.7464 135.788 12.5151 135.929 14.0716 136.213C15.6988 136.496 17.1137 136.992 18.2457 137.63C19.4484 138.268 20.3681 139.189 21.0048 140.252C21.7123 141.315 21.9953 142.661 21.9953 144.22C21.9953 145.992 21.5708 147.409 20.7218 148.543C19.8729 149.676 18.8116 150.527 17.3967 151.094C19.2361 151.661 20.7926 152.511 21.8538 153.716C22.9857 154.92 23.481 156.621 23.481 158.818C23.481 162.006 22.2783 164.416 19.9436 166.045C17.6089 167.675 14.0716 168.384 8.97775 168.384ZM4.80365 149.606H9.47298C10.6049 149.606 11.5954 149.535 12.5859 149.393C13.5763 149.251 14.4253 148.968 15.1328 148.543C15.8403 148.117 16.4062 147.621 16.8307 146.984C17.2552 146.346 17.4674 145.496 17.4674 144.504C17.4674 143.582 17.2552 142.803 16.8307 142.165C16.4062 141.527 15.8402 141.031 15.062 140.606C14.2838 140.252 13.4348 139.968 12.4444 139.756C11.4539 139.543 10.322 139.472 9.18999 139.472C8.05803 139.472 7.13832 139.472 6.50159 139.543C5.86486 139.543 5.29888 139.614 4.7329 139.685V149.606H4.80365ZM4.80365 153.219V164.486C5.15739 164.486 5.51113 164.557 6.00636 164.557C6.43084 164.557 6.85533 164.628 7.42131 164.628C7.98729 164.628 8.55327 164.628 9.26074 164.628C10.6049 164.628 11.8076 164.557 13.0104 164.345C14.2131 164.203 15.2035 163.849 16.1232 163.424C17.043 162.998 17.7504 162.361 18.2457 161.652C18.8116 160.873 19.0239 159.88 19.0239 158.747C19.0239 157.684 18.8116 156.833 18.4579 156.125C18.0334 155.416 17.4674 154.849 16.76 154.424C15.9817 153.999 15.1328 153.716 14.0716 153.503C13.0104 153.29 11.8784 153.219 10.5342 153.219H4.80365Z" fill="#1D1C1C"/>
<path d="M41.8758 168.809C39.7534 168.809 37.9847 168.455 36.4283 167.817C34.8718 167.179 33.5984 166.258 32.6787 165.195C31.6882 164.061 30.9807 162.715 30.4855 161.227C29.9903 159.668 29.778 158.038 29.778 156.267V136.142H34.2351V155.7C34.2351 158.888 34.9426 161.227 36.3575 162.644C37.7725 164.061 39.6119 164.841 41.8758 164.841C43.0078 164.841 44.069 164.699 44.9887 164.274C45.9084 163.92 46.7574 163.353 47.3941 162.644C48.1016 161.935 48.5968 160.943 48.9506 159.81C49.3043 158.676 49.5165 157.259 49.5165 155.7V136.142H53.9736V156.267C53.9736 158.038 53.7614 159.739 53.2662 161.227C52.7709 162.786 52.0635 164.132 51.073 165.195C50.0825 166.329 48.8091 167.179 47.3234 167.817C45.7669 168.526 43.9982 168.809 41.8758 168.809Z" fill="#1D1C1C"/>
<path d="M61.6851 136.142H66.1422V168.171H61.6851V136.142Z" fill="#1D1C1C"/>
<path d="M93.3799 164.274V168.171H74.1366V136.142H78.5937V164.274H93.3799Z" fill="#1D1C1C"/>
<path d="M124.297 152.086C124.297 154.849 123.872 157.259 123.023 159.314C122.174 161.369 120.971 163.069 119.415 164.416C117.859 165.762 115.948 166.754 113.755 167.392C111.562 168.03 109.157 168.384 106.539 168.384C105.265 168.384 103.851 168.313 102.294 168.242C100.738 168.1 99.3227 167.959 98.0493 167.604V136.567C99.3227 136.284 100.738 136.071 102.294 135.929C103.851 135.788 105.265 135.788 106.539 135.788C109.157 135.788 111.562 136.142 113.755 136.78C115.948 137.417 117.788 138.409 119.415 139.756C120.971 141.102 122.174 142.803 123.023 144.858C123.872 146.913 124.297 149.322 124.297 152.086ZM106.893 164.486C111.138 164.486 114.321 163.424 116.373 161.227C118.495 159.03 119.486 155.983 119.486 152.086C119.486 148.188 118.424 145.141 116.373 142.945C114.25 140.748 111.138 139.685 106.893 139.685C105.619 139.685 104.629 139.685 103.992 139.756C103.355 139.827 102.789 139.827 102.506 139.827V164.274C102.789 164.274 103.285 164.345 103.992 164.345C104.7 164.486 105.619 164.486 106.893 164.486Z" fill="#1D1C1C"/>
<path d="M145.238 168.738C140.073 168.738 136.111 167.321 133.352 164.416C130.664 161.51 129.249 157.4 129.249 152.086C129.249 149.464 129.673 147.055 130.522 145C131.371 142.945 132.503 141.173 133.918 139.756C135.333 138.339 137.102 137.205 139.083 136.496C141.064 135.788 143.257 135.362 145.592 135.362C146.936 135.362 148.138 135.433 149.27 135.646C150.402 135.858 151.322 136.071 152.171 136.354C153.02 136.638 153.727 136.921 154.223 137.134C154.789 137.417 155.142 137.63 155.425 137.772L153.374 143.582C152.383 143.086 151.251 142.59 149.907 142.236C148.563 141.882 147.148 141.669 145.45 141.669C144.318 141.669 143.257 141.882 142.196 142.236C141.134 142.59 140.215 143.228 139.366 144.008C138.517 144.858 137.88 145.85 137.385 147.196C136.89 148.472 136.677 150.031 136.677 151.873C136.677 153.361 136.819 154.708 137.173 155.983C137.526 157.259 138.022 158.392 138.729 159.314C139.436 160.235 140.427 160.943 141.559 161.51C142.762 162.077 144.177 162.29 145.804 162.29C146.865 162.29 147.785 162.219 148.634 162.077C149.483 161.935 150.19 161.794 150.827 161.652C151.464 161.51 152.03 161.298 152.525 161.085C153.02 160.873 153.444 160.66 153.869 160.518L155.85 166.258C154.859 166.896 153.374 167.463 151.534 167.888C149.766 168.526 147.643 168.738 145.238 168.738Z" fill="#1D1C1C"/>
<path d="M169.858 135.717C174.669 135.717 178.348 136.567 180.895 138.268C183.441 139.968 184.715 142.661 184.715 146.204C184.715 148.472 184.22 150.243 183.158 151.661C182.097 153.078 180.612 154.141 178.701 154.991C179.338 155.771 180.046 156.692 180.753 157.755C181.46 158.818 182.168 159.88 182.875 161.014C183.583 162.148 184.22 163.282 184.856 164.557C185.493 165.762 186.13 166.967 186.625 168.171H178.631C178.065 167.108 177.428 166.045 176.862 164.983C176.225 163.92 175.659 162.857 175.022 161.865C174.386 160.873 173.749 159.881 173.183 158.959C172.546 158.038 171.98 157.259 171.344 156.479H167.806V168.171H160.59V136.638C162.146 136.354 163.774 136.142 165.472 136C167.099 135.788 168.584 135.717 169.858 135.717ZM170.282 141.882C169.787 141.882 169.292 141.882 168.867 141.953C168.443 141.953 168.089 142.023 167.665 142.023V150.739H169.716C172.405 150.739 174.386 150.385 175.518 149.747C176.72 149.039 177.286 147.905 177.286 146.275C177.286 144.716 176.72 143.582 175.518 142.945C174.315 142.236 172.617 141.882 170.282 141.882Z" fill="#1D1C1C"/>
<path d="M199.784 136.142C200.35 137.134 200.987 138.409 201.694 139.898C202.402 141.386 203.18 143.015 203.958 144.716C204.736 146.488 205.515 148.259 206.293 150.031C207.071 151.873 207.779 153.574 208.486 155.133C209.194 153.503 209.901 151.802 210.679 150.031C211.457 148.188 212.236 146.417 213.014 144.716C213.792 142.945 214.57 141.386 215.278 139.898C215.985 138.409 216.622 137.134 217.188 136.142H223.767C224.05 138.268 224.333 140.677 224.616 143.299C224.899 145.921 225.112 148.684 225.324 151.519C225.536 154.353 225.678 157.188 225.89 160.093C226.031 162.928 226.173 165.62 226.314 168.171H219.31C219.24 165.053 219.098 161.652 218.957 158.038C218.815 154.353 218.603 150.669 218.249 146.984C217.683 148.259 217.046 149.676 216.41 151.306C215.702 152.865 215.066 154.424 214.429 155.983C213.792 157.542 213.155 159.03 212.519 160.518C211.882 161.935 211.387 163.14 210.962 164.203H205.939C205.515 163.211 204.949 161.935 204.383 160.518C203.746 159.101 203.109 157.613 202.473 155.983C201.836 154.424 201.128 152.865 200.492 151.306C199.784 149.747 199.218 148.33 198.652 146.984C198.369 150.739 198.086 154.424 197.945 158.038C197.803 161.723 197.662 165.124 197.591 168.171H190.587C190.728 165.62 190.87 162.928 191.011 160.093C191.153 157.259 191.365 154.353 191.577 151.519C191.79 148.684 192.002 145.921 192.285 143.299C192.568 140.677 192.851 138.268 193.134 136.142H199.784Z" fill="#1D1C1C"/>
</g>
<defs>
<clipPath id="clip0">
<rect width="225.897" height="168.579" fill="white" transform="translate(0.347107 0.229523)"/>
</clipPath>
</defs>
</svg>
